<mxfile host="65bd71144e" modified="2023-06-12T01:41:52.054Z" agent="Mozilla/5.0 (Windows NT 10.0; Win64; x64) AppleWebKit/537.36 (KHTML, like Gecko) Code/1.79.0 Chrome/108.0.5359.215 Electron/22.5.5 Safari/537.36" etag="rDwOHpUbGv3W1daAAOx-" version="21.3.8" type="embed">
    <diagram name="ページ1" id="D5p3RVC4t98DR3PqROP9">
        <mxGraphModel dx="936" dy="558" grid="1" gridSize="10" guides="1" tooltips="1" connect="1" arrows="1" fold="1" page="1" pageScale="1" pageWidth="1169" pageHeight="827" math="0" shadow="0">
            <root>
                <mxCell id="0"/>
                <mxCell id="1" parent="0"/>
                <mxCell id="12" style="edgeStyle=none;html=1;exitX=0.5;exitY=1;exitDx=0;exitDy=0;exitPerimeter=0;entryX=0.5;entryY=0;entryDx=0;entryDy=0;" edge="1" parent="1" source="StKes1Bay4Hae8yV6QAt-1" target="D7fSjAbkDVPHjdvhgrvn-8">
                    <mxGeometry relative="1" as="geometry"/>
                </mxCell>
                <mxCell id="StKes1Bay4Hae8yV6QAt-1" value="開始" style="strokeWidth=2;shape=mxgraph.flowchart.terminator;fontSize=16;fontFamily=BIZ UDPGothic;" parent="1" vertex="1">
                    <mxGeometry x="100" y="100" width="80" height="40" as="geometry"/>
                </mxCell>
                <mxCell id="StKes1Bay4Hae8yV6QAt-2" value="終了" style="strokeWidth=2;shape=mxgraph.flowchart.terminator;fontSize=16;fontFamily=BIZ UDPGothic;" parent="1" vertex="1">
                    <mxGeometry x="100" y="560" width="80" height="40" as="geometry"/>
                </mxCell>
                <mxCell id="9aM1dBj8owvEj4xOFZrg-10" value="&lt;p class=&quot;MsoNormal&quot;&gt;3で割り切れる数の関数&lt;span lang=&quot;EN-US&quot;&gt;&lt;/span&gt;&lt;/p&gt;" style="text;html=1;strokeColor=none;fillColor=none;align=left;verticalAlign=middle;whiteSpace=wrap;rounded=0;fontSize=20;fontFamily=BIZ UDPGothic;" parent="1" vertex="1">
                    <mxGeometry x="40" y="40" width="480" height="40" as="geometry"/>
                </mxCell>
                <mxCell id="14" style="edgeStyle=none;html=1;exitX=0.5;exitY=1;exitDx=0;exitDy=0;exitPerimeter=0;entryX=0.5;entryY=0;entryDx=0;entryDy=0;" edge="1" parent="1" source="D7fSjAbkDVPHjdvhgrvn-4" target="11">
                    <mxGeometry relative="1" as="geometry"/>
                </mxCell>
                <mxCell id="D7fSjAbkDVPHjdvhgrvn-4" value="x≦10" style="strokeWidth=2;shape=mxgraph.flowchart.loop_limit;fontSize=16;fontFamily=BIZ UDPGothic;" parent="1" vertex="1">
                    <mxGeometry x="60" y="220" width="160" height="40" as="geometry"/>
                </mxCell>
                <mxCell id="18" style="edgeStyle=none;html=1;exitX=0.5;exitY=0;exitDx=0;exitDy=0;exitPerimeter=0;entryX=0.5;entryY=0;entryDx=0;entryDy=0;entryPerimeter=0;" edge="1" parent="1" source="D7fSjAbkDVPHjdvhgrvn-5" target="StKes1Bay4Hae8yV6QAt-2">
                    <mxGeometry relative="1" as="geometry"/>
                </mxCell>
                <mxCell id="D7fSjAbkDVPHjdvhgrvn-5" value="" style="strokeWidth=2;shape=mxgraph.flowchart.loop_limit;direction=west;fontSize=16;fontFamily=BIZ UDPGothic;" parent="1" vertex="1">
                    <mxGeometry x="60" y="500" width="160" height="40" as="geometry"/>
                </mxCell>
                <mxCell id="16" style="edgeStyle=none;html=1;exitX=0.5;exitY=1;exitDx=0;exitDy=0;entryX=0.5;entryY=0;entryDx=0;entryDy=0;" edge="1" parent="1" source="D7fSjAbkDVPHjdvhgrvn-7" target="2">
                    <mxGeometry relative="1" as="geometry"/>
                </mxCell>
                <mxCell id="D7fSjAbkDVPHjdvhgrvn-7" value="xを表示する" style="rounded=1;absoluteArcSize=1;arcSize=14;strokeWidth=2;fontSize=16;fontFamily=BIZ UDPGothic;" parent="1" vertex="1">
                    <mxGeometry x="40" y="360" width="200" height="40" as="geometry"/>
                </mxCell>
                <mxCell id="13" style="edgeStyle=none;html=1;exitX=0.5;exitY=1;exitDx=0;exitDy=0;entryX=0.5;entryY=0;entryDx=0;entryDy=0;entryPerimeter=0;" edge="1" parent="1" source="D7fSjAbkDVPHjdvhgrvn-8" target="D7fSjAbkDVPHjdvhgrvn-4">
                    <mxGeometry relative="1" as="geometry"/>
                </mxCell>
                <mxCell id="D7fSjAbkDVPHjdvhgrvn-8" value="変数xに、1を入れる" style="rounded=1;absoluteArcSize=1;arcSize=14;strokeWidth=2;fontSize=16;fontFamily=BIZ UDPGothic;" parent="1" vertex="1">
                    <mxGeometry x="40" y="160" width="200" height="40" as="geometry"/>
                </mxCell>
                <mxCell id="17" style="edgeStyle=none;html=1;exitX=0.5;exitY=1;exitDx=0;exitDy=0;entryX=0.5;entryY=1;entryDx=0;entryDy=0;entryPerimeter=0;" edge="1" parent="1" source="2" target="D7fSjAbkDVPHjdvhgrvn-5">
                    <mxGeometry relative="1" as="geometry"/>
                </mxCell>
                <mxCell id="2" value="変数xを、1だけ増やす" style="rounded=1;absoluteArcSize=1;arcSize=14;strokeWidth=2;fontSize=16;fontFamily=BIZ UDPGothic;" parent="1" vertex="1">
                    <mxGeometry x="40" y="440" width="200" height="40" as="geometry"/>
                </mxCell>
                <mxCell id="20" style="edgeStyle=none;html=1;exitX=0.5;exitY=1;exitDx=0;exitDy=0;exitPerimeter=0;entryX=0.5;entryY=0;entryDx=0;entryDy=0;" edge="1" parent="1" source="3" target="6">
                    <mxGeometry relative="1" as="geometry"/>
                </mxCell>
                <mxCell id="3" value="3で割り切れる数" style="strokeWidth=2;shape=mxgraph.flowchart.terminator;fontSize=16;fontFamily=BIZ UDPGothic;" vertex="1" parent="1">
                    <mxGeometry x="320" y="200" width="160" height="40" as="geometry"/>
                </mxCell>
                <mxCell id="4" value="trueを返す" style="strokeWidth=2;shape=mxgraph.flowchart.terminator;fontSize=16;fontFamily=BIZ UDPGothic;" vertex="1" parent="1">
                    <mxGeometry x="480" y="360" width="120" height="40" as="geometry"/>
                </mxCell>
                <mxCell id="21" style="edgeStyle=none;html=1;exitX=0.5;exitY=1;exitDx=0;exitDy=0;entryX=0.5;entryY=0;entryDx=0;entryDy=0;entryPerimeter=0;" edge="1" parent="1" source="6" target="9">
                    <mxGeometry relative="1" as="geometry"/>
                </mxCell>
                <mxCell id="22" style="edgeStyle=orthogonalEdgeStyle;html=1;exitX=1;exitY=0.5;exitDx=0;exitDy=0;entryX=0.5;entryY=0;entryDx=0;entryDy=0;entryPerimeter=0;rounded=0;" edge="1" parent="1" source="6" target="4">
                    <mxGeometry relative="1" as="geometry"/>
                </mxCell>
                <mxCell id="6" value="inputを3で&#xa;割った余りが0" style="rhombus;strokeWidth=2;fontFamily=BIZ UDPGothic;fontSize=16;" vertex="1" parent="1">
                    <mxGeometry x="300" y="260" width="200" height="80" as="geometry"/>
                </mxCell>
                <mxCell id="9" value="falseを返す" style="strokeWidth=2;shape=mxgraph.flowchart.terminator;fontSize=16;fontFamily=BIZ UDPGothic;" vertex="1" parent="1">
                    <mxGeometry x="340" y="360" width="120" height="40" as="geometry"/>
                </mxCell>
                <mxCell id="15" style="edgeStyle=none;html=1;exitX=0.5;exitY=1;exitDx=0;exitDy=0;entryX=0.5;entryY=0;entryDx=0;entryDy=0;" edge="1" parent="1" source="11" target="D7fSjAbkDVPHjdvhgrvn-7">
                    <mxGeometry relative="1" as="geometry"/>
                </mxCell>
                <mxCell id="19" style="edgeStyle=orthogonalEdgeStyle;html=1;exitX=1;exitY=0.5;exitDx=0;exitDy=0;entryX=0.5;entryY=0;entryDx=0;entryDy=0;elbow=vertical;jumpSize=7;jumpStyle=none;rounded=0;" edge="1" parent="1" source="11" target="2">
                    <mxGeometry relative="1" as="geometry">
                        <Array as="points">
                            <mxPoint x="260" y="310"/>
                            <mxPoint x="260" y="420"/>
                            <mxPoint x="140" y="420"/>
                        </Array>
                    </mxGeometry>
                </mxCell>
                <mxCell id="11" value="3で割り切れる数(x)" style="rhombus;strokeWidth=2;fontFamily=BIZ UDPGothic;fontSize=16;" vertex="1" parent="1">
                    <mxGeometry x="40" y="280" width="200" height="59" as="geometry"/>
                </mxCell>
                <mxCell id="23" value="" style="shape=flexArrow;endArrow=classic;html=1;rounded=0;labelBackgroundColor=default;strokeColor=none;fontFamily=Helvetica;fontSize=11;fontColor=default;fillColor=#000000;" edge="1" parent="1">
                    <mxGeometry width="50" height="50" relative="1" as="geometry">
                        <mxPoint x="270" y="290" as="sourcePoint"/>
                        <mxPoint x="330" y="240" as="targetPoint"/>
                    </mxGeometry>
                </mxCell>
                <mxCell id="24" value="" style="shape=flexArrow;endArrow=classic;html=1;rounded=0;labelBackgroundColor=default;strokeColor=none;fontFamily=Helvetica;fontSize=11;fontColor=default;fillColor=#000000;" edge="1" parent="1">
                    <mxGeometry width="50" height="50" relative="1" as="geometry">
                        <mxPoint x="330" y="370" as="sourcePoint"/>
                        <mxPoint x="270" y="330" as="targetPoint"/>
                    </mxGeometry>
                </mxCell>
                <mxCell id="25" value="Yes" style="text;html=1;strokeColor=none;fillColor=none;align=center;verticalAlign=middle;whiteSpace=wrap;rounded=0;fontSize=16;fontFamily=BIZ UDPGothic;fontColor=default;" vertex="1" parent="1">
                    <mxGeometry x="465" y="300" width="60" height="30" as="geometry"/>
                </mxCell>
                <mxCell id="26" value="No" style="text;html=1;strokeColor=none;fillColor=none;align=center;verticalAlign=middle;whiteSpace=wrap;rounded=0;fontSize=16;fontFamily=BIZ UDPGothic;fontColor=default;" vertex="1" parent="1">
                    <mxGeometry x="405" y="330" width="60" height="30" as="geometry"/>
                </mxCell>
            </root>
        </mxGraphModel>
    </diagram>
</mxfile>